<svg xmlns="http://www.w3.org/2000/svg" xmlns:xlink="http://www.w3.org/1999/xlink" width="1080" zoomAndPan="magnify" viewBox="0 0 810 809.999993" height="1080" preserveAspectRatio="xMidYMid meet" version="1.0"><path fill="#212121" d="M 405 572.035156 C 312.746094 572.035156 237.964844 497.253906 237.964844 405 C 237.964844 312.746094 312.746094 237.964844 405 237.964844 C 497.253906 237.964844 572.035156 312.746094 572.035156 405 C 572.035156 497.253906 497.253906 572.035156 405 572.035156 Z M 788.128906 326.90625 L 713.347656 318.050781 C 706.59375 294.023438 697.007812 270.636719 684.546875 248.417969 L 731.140625 189.308594 C 738.917969 179.445312 738.078125 165.324219 729.199219 156.449219 L 653.550781 80.800781 C 644.675781 71.921875 630.554688 71.082031 620.691406 78.859375 L 561.582031 125.453125 C 539.363281 112.992188 515.96875 103.40625 491.949219 96.652344 L 483.101562 21.863281 C 481.621094 9.390625 471.050781 0 458.488281 0 L 351.503906 0 C 338.949219 0 328.378906 9.390625 326.90625 21.863281 L 318.050781 96.652344 C 294.023438 103.40625 270.636719 112.992188 248.417969 125.453125 L 189.300781 78.859375 C 179.445312 71.082031 165.320312 71.921875 156.441406 80.800781 L 80.800781 156.449219 C 71.921875 165.324219 71.082031 179.445312 78.859375 189.308594 L 125.453125 248.417969 C 112.992188 270.636719 103.398438 294.023438 96.652344 318.050781 L 21.863281 326.90625 C 9.390625 328.378906 0 338.949219 0 351.503906 L 0 458.488281 C 0 471.050781 9.390625 481.621094 21.863281 483.101562 L 96.652344 491.949219 C 103.398438 515.96875 112.992188 539.363281 125.453125 561.582031 L 78.859375 620.691406 C 71.082031 630.554688 71.921875 644.675781 80.800781 653.550781 L 156.441406 729.199219 C 165.320312 738.078125 179.445312 738.917969 189.300781 731.140625 L 248.417969 684.546875 C 270.636719 697.007812 294.023438 706.59375 318.050781 713.347656 L 326.90625 788.128906 C 328.378906 800.609375 338.949219 810 351.503906 810 L 456.71875 810 C 469.050781 810 479.511719 800.925781 481.246094 788.703125 L 491.949219 713.347656 C 515.96875 706.59375 539.363281 697.007812 561.582031 684.546875 L 620.691406 731.140625 C 630.554688 738.917969 644.675781 738.078125 653.550781 729.199219 L 729.199219 653.550781 C 738.078125 644.675781 738.917969 630.554688 731.140625 620.691406 L 684.546875 561.582031 C 697.007812 539.363281 706.59375 515.96875 713.347656 491.949219 L 788.128906 483.101562 C 800.609375 481.621094 810 471.050781 810 458.488281 L 810 351.503906 C 810 338.949219 800.609375 328.378906 788.128906 326.90625 " fill-opacity="1" fill-rule="nonzero"/></svg>